HIERARCHY
ROOT hip
{
	OFFSET 0.000000 0.000000 0.000000 
	CHANNELS 6 Xposition Yposition Zposition Xrotation Zrotation Yrotation
	JOINT abdomen
	{
		OFFSET 0.000000 3.402643 0.000000 
		CHANNELS 3 Xrotation Zrotation Yrotation
		JOINT chest
		{
			OFFSET 0.000000 8.438565 -0.680529 
			CHANNELS 3 Xrotation Zrotation Yrotation
			JOINT neck
			{
				OFFSET 0.000000 10.207942 -0.272212 
				CHANNELS 3 Xrotation Zrotation Yrotation
				JOINT head
				{
					OFFSET 0.000000 3.130431 0.000000 
					CHANNELS 3 Xrotation Zrotation Yrotation
					End Site
					{
						OFFSET 0.000000 3.130435 0.000000 
					}
				}
			}
			JOINT lCollar
			{
				OFFSET 3.470700 6.669187 -0.816635 
				CHANNELS 3 Yrotation Zrotation Xrotation
				JOINT lShldr
				{
					OFFSET 3.198488 0.000000 0.000000 
					CHANNELS 3 Zrotation Yrotation Xrotation
					JOINT lForeArm
					{
						OFFSET 10.139888 0.000000 0.000000 
						CHANNELS 3 Yrotation Zrotation Xrotation
						JOINT lHand
						{
							OFFSET 8.370511 0.000000 0.000000 
							CHANNELS 3 Zrotation Yrotation Xrotation
							End Site
							{
								OFFSET 4.083176 0.000000 0.000000 
							}
						}
					}
				}
			}
			JOINT rCollar
			{
				OFFSET -3.470700 6.669187 -0.816635 
				CHANNELS 3 Yrotation Zrotation Xrotation
				JOINT rShldr
				{
					OFFSET -3.198488 0.000000 0.000000 
					CHANNELS 3 Zrotation Yrotation Xrotation
					JOINT rForeArm
					{
						OFFSET -10.139888 0.000000 0.000000 
						CHANNELS 3 Yrotation Zrotation Xrotation
						JOINT rHand
						{
							OFFSET -8.370511 0.000000 0.000000 
							CHANNELS 3 Zrotation Yrotation Xrotation
							End Site
							{
								OFFSET -4.083176 0.000000 0.000000 
							}
						}
					}
				}
			}
		}
	}
	JOINT lThigh
	{
		OFFSET 5.308129 -1.633274 1.361059 
		CHANNELS 3 Xrotation Zrotation Yrotation
		JOINT lShin
		{
			OFFSET -2.041588 -20.007561 0.000000 
			CHANNELS 3 Xrotation Zrotation Yrotation
			JOINT lFoot
			{
				OFFSET 0.000000 -19.190928 -1.224953 
				CHANNELS 3 Xrotation Yrotation Zrotation
				End Site
				{
					OFFSET 0.000000 -2.449906 4.627600 
				}
			}
		}
	}
	JOINT rThigh
	{
		OFFSET -5.308129 -1.633274 1.361059 
		CHANNELS 3 Xrotation Zrotation Yrotation
		JOINT rShin
		{
			OFFSET 2.041588 -20.007561 0.000000 
			CHANNELS 3 Xrotation Zrotation Yrotation
			JOINT rFoot
			{
				OFFSET 0.000000 -19.190928 -1.224953 
				CHANNELS 3 Xrotation Yrotation Zrotation
				End Site
				{
					OFFSET 0.000000 -2.449906 4.627600 
				}
			}
		}
	}
}
MOTION
Frames: 6
Frame Time: 0.016667
-32.918274 49.848373 181.950394 21.298006 -19.631569 31.999563 8.246711 -1.825652 -1.368049 -9.040800 6.407193 -16.491798 10.737735 -4.047945 -6.275798 -3.742371 -12.921335 8.978702 -26.560175 -1.166759 -7.516659 -25.749071 -46.465553 -7.588264 -68.259476 8.196195 10.288810 29.781702 -9.828311 11.610390 -3.723032 15.388266 -10.692200 25.013800 -9.726640 -21.148346 11.410389 -13.050226 6.907066 -47.114182 -7.141311 -81.641785 -31.833818 -2.011914 1.000841 16.960695 -0.527672 -0.766490 -14.103009 13.217091 -1.859991 -47.468906 -10.390028 2.130689 27.244810 -0.756600 0.893971 -8.446206 -9.793308 3.772077 
-32.830601 49.938812 181.928970 21.267401 -19.091005 30.258663 8.246711 -1.825652 -1.368049 -8.528026 6.769779 -16.307940 10.777663 -4.289247 -5.161246 -4.095152 -13.109258 9.908420 -26.314278 -1.097113 -6.915033 -21.317097 -45.521454 -6.402694 -65.055779 8.432402 10.010082 28.091534 -8.917750 11.689316 -3.646181 15.673380 -10.175995 23.296017 -11.590365 -28.486654 17.339252 -13.013481 7.885239 -50.147278 -4.873330 -81.140945 -31.318068 -1.279714 0.979165 17.130953 -0.680939 -0.803905 -13.473747 13.212063 -2.189412 -48.301365 -9.529781 1.628497 34.622051 -0.884351 1.094561 -8.951077 -9.851322 3.889193 
-32.744999 50.014065 181.913437 20.930683 -18.314804 28.255787 8.246711 -1.825652 -1.368049 -7.812229 6.943408 -15.899774 11.060183 -4.550140 -3.879772 -4.631815 -13.300526 10.880553 -25.870630 -1.266779 -6.270940 -16.407911 -44.530304 -3.801082 -62.010284 8.571338 9.565210 26.558140 -8.441905 10.638304 -3.406909 15.776423 -9.472919 21.932272 -12.464204 -35.247246 23.460659 -12.746103 8.598529 -52.231167 -2.272070 -80.015762 -30.820160 -0.772035 0.492286 17.813498 -0.680798 -0.863705 -12.783781 12.874460 -2.070640 -48.623955 -8.465533 0.878018 41.987843 -1.071047 1.274521 -9.494011 -9.986855 3.771292 
-32.660179 50.058441 181.904678 20.350527 -17.419195 26.414898 8.246711 -1.825652 -1.368049 -6.927144 7.143165 -15.287121 11.515887 -4.789567 -2.715195 -4.991898 -13.324674 11.836360 -25.405308 -1.519017 -5.472408 -11.447879 -43.633251 -1.186392 -59.347076 8.762560 9.510725 25.290850 -8.441508 9.204425 -3.181354 15.844218 -8.603356 20.872314 -13.626660 -42.064571 29.563169 -12.565240 9.533456 -54.446114 0.133529 -79.054138 -30.292404 -0.420297 0.347741 18.674829 -0.654517 -0.869278 -12.211310 12.628707 -2.021261 -48.561520 -7.206569 -0.236717 49.373768 -1.237906 1.447846 -9.983120 -9.962855 3.766539 
-32.575752 50.049900 181.901382 19.835342 -16.157646 24.460678 8.246711 -1.825652 -1.368049 -5.876684 6.991237 -14.434891 12.177601 -5.282306 -1.059198 -5.188055 -13.336813 12.761275 -24.541767 -2.155058 -4.702492 -7.064570 -41.734539 2.488137 -57.210949 8.872210 9.302639 24.494350 -8.644684 8.601357 -2.626791 15.557019 -7.642442 19.565853 -13.461327 -47.921040 35.978996 -12.184220 10.185171 -56.668591 0.970495 -74.139610 -29.821051 -0.068774 0.056572 19.762911 -0.557132 -0.863841 -11.742726 12.281438 -2.052434 -48.435841 -6.337298 -1.111308 56.587708 -1.443629 1.728537 -10.693767 -9.480602 3.698684 
-32.490002 49.989532 181.907715 19.214029 -14.567774 22.244381 8.246711 -1.825652 -1.368049 -4.629324 6.467277 -13.534973 13.068377 -6.181173 0.706397 -5.195573 -13.338449 13.636322 -23.663284 -2.982678 -3.831331 -2.721470 -39.895649 6.308953 -55.580425 8.911832 8.998239 23.693230 -9.211447 8.352854 -2.094950 15.096964 -6.491914 18.152048 -13.562145 -53.719620 42.417599 -11.635617 10.971572 -58.829159 1.842140 -69.354408 -29.108601 0.107028 -0.012499 21.153828 -0.713311 -0.970848 -11.618477 11.843058 -1.852041 -47.955780 -5.673676 -1.666037 63.789574 -1.249760 1.929602 -11.290122 -9.530904 3.422861 
